<mxfile host="65bd71144e">
    <diagram id="d5v1qMOle_JKqdKeMxP-" name="Page-1">
        <mxGraphModel dx="818" dy="787" grid="1" gridSize="10" guides="1" tooltips="1" connect="1" arrows="1" fold="1" page="1" pageScale="1" pageWidth="850" pageHeight="1100" math="0" shadow="0">
            <root>
                <mxCell id="0"/>
                <mxCell id="1" parent="0"/>
                <mxCell id="31" value="" style="rounded=0;whiteSpace=wrap;html=1;sketch=1;hachureGap=4;jiggle=2;curveFitting=1;fontFamily=Architects Daughter;fontSource=https%3A%2F%2Ffonts.googleapis.com%2Fcss%3Ffamily%3DArchitects%2BDaughter;fontSize=20;" parent="1" vertex="1">
                    <mxGeometry x="330" y="350" width="120" height="60" as="geometry"/>
                </mxCell>
                <mxCell id="2" value="" style="rounded=0;whiteSpace=wrap;html=1;sketch=1;curveFitting=1;jiggle=2;fillColor=#FFCCFF;" parent="1" vertex="1">
                    <mxGeometry x="80" y="40" width="680" height="700" as="geometry"/>
                </mxCell>
                <mxCell id="3" value="Navigation Bar" style="rounded=0;whiteSpace=wrap;html=1;sketch=1;curveFitting=1;jiggle=2;strokeColor=#0000CC;fillColor=#00CCCC;" parent="1" vertex="1">
                    <mxGeometry x="90" y="50" width="660" height="70" as="geometry"/>
                </mxCell>
                <mxCell id="4" value="&lt;span dir=&quot;ltr&quot; class=&quot;ui-provider a b c d e f g h i j k l m n o p q r s t u v w x y z ab ac ae af ag ah ai aj ak&quot;&gt;Available&amp;nbsp;&lt;/span&gt;Students List" style="rounded=0;whiteSpace=wrap;html=1;sketch=1;curveFitting=1;jiggle=2;" parent="1" vertex="1">
                    <mxGeometry x="110" y="170" width="330" height="360" as="geometry"/>
                </mxCell>
                <mxCell id="5" value="Already Selected List" style="rounded=0;whiteSpace=wrap;html=1;sketch=1;curveFitting=1;jiggle=2;" parent="1" vertex="1">
                    <mxGeometry x="490" y="170" width="220" height="170" as="geometry"/>
                </mxCell>
                <mxCell id="6" value="Currently Selected List" style="rounded=0;whiteSpace=wrap;html=1;sketch=1;curveFitting=1;jiggle=2;" parent="1" vertex="1">
                    <mxGeometry x="490" y="360" width="220" height="60" as="geometry"/>
                </mxCell>
                <mxCell id="11" value="Footer" style="rounded=0;whiteSpace=wrap;html=1;sketch=1;curveFitting=1;jiggle=2;shadow=1;strokeColor=#0000CC;fillColor=#00FFFF;" parent="1" vertex="1">
                    <mxGeometry x="90" y="660" width="660" height="60" as="geometry"/>
                </mxCell>
                <mxCell id="13" value="" style="rounded=0;whiteSpace=wrap;html=1;sketch=1;curveFitting=1;jiggle=2;" parent="1" vertex="1">
                    <mxGeometry x="120" y="180" width="270" height="30" as="geometry"/>
                </mxCell>
                <mxCell id="17" value="" style="rounded=0;whiteSpace=wrap;html=1;sketch=1;curveFitting=1;jiggle=2;" parent="1" vertex="1">
                    <mxGeometry x="120" y="360" width="270" height="30" as="geometry"/>
                </mxCell>
                <mxCell id="14" value="" style="rounded=0;whiteSpace=wrap;html=1;sketch=1;curveFitting=1;jiggle=2;" parent="1" vertex="1">
                    <mxGeometry x="120" y="220" width="270" height="30" as="geometry"/>
                </mxCell>
                <mxCell id="15" value="" style="rounded=0;whiteSpace=wrap;html=1;sketch=1;curveFitting=1;jiggle=2;" parent="1" vertex="1">
                    <mxGeometry x="120" y="260" width="270" height="30" as="geometry"/>
                </mxCell>
                <mxCell id="16" value="" style="rounded=0;whiteSpace=wrap;html=1;sketch=1;curveFitting=1;jiggle=2;" parent="1" vertex="1">
                    <mxGeometry x="120" y="300" width="270" height="30" as="geometry"/>
                </mxCell>
                <mxCell id="18" value="" style="rounded=0;whiteSpace=wrap;html=1;sketch=1;curveFitting=1;jiggle=2;" parent="1" vertex="1">
                    <mxGeometry x="120" y="480" width="270" height="30" as="geometry"/>
                </mxCell>
                <mxCell id="19" value="" style="rounded=0;whiteSpace=wrap;html=1;sketch=1;curveFitting=1;jiggle=2;" parent="1" vertex="1">
                    <mxGeometry x="120" y="440" width="270" height="30" as="geometry"/>
                </mxCell>
                <mxCell id="20" value="" style="rounded=0;whiteSpace=wrap;html=1;sketch=1;curveFitting=1;jiggle=2;" parent="1" vertex="1">
                    <mxGeometry x="120" y="400" width="270" height="30" as="geometry"/>
                </mxCell>
                <mxCell id="22" value="ADD" style="rounded=0;whiteSpace=wrap;html=1;sketch=1;curveFitting=1;jiggle=2;" parent="1" vertex="1">
                    <mxGeometry x="400" y="180" width="30" height="30" as="geometry"/>
                </mxCell>
                <mxCell id="23" value="ADD" style="rounded=0;whiteSpace=wrap;html=1;sketch=1;curveFitting=1;jiggle=2;" parent="1" vertex="1">
                    <mxGeometry x="400" y="220" width="30" height="30" as="geometry"/>
                </mxCell>
                <mxCell id="24" value="ADD" style="rounded=0;whiteSpace=wrap;html=1;sketch=1;curveFitting=1;jiggle=2;" parent="1" vertex="1">
                    <mxGeometry x="400" y="260" width="30" height="30" as="geometry"/>
                </mxCell>
                <mxCell id="25" value="ADD" style="rounded=0;whiteSpace=wrap;html=1;sketch=1;curveFitting=1;jiggle=2;" parent="1" vertex="1">
                    <mxGeometry x="400" y="300" width="30" height="30" as="geometry"/>
                </mxCell>
                <mxCell id="26" value="ADD" style="rounded=0;whiteSpace=wrap;html=1;sketch=1;curveFitting=1;jiggle=2;" parent="1" vertex="1">
                    <mxGeometry x="400" y="360" width="30" height="30" as="geometry"/>
                </mxCell>
                <mxCell id="27" value="ADD" style="rounded=0;whiteSpace=wrap;html=1;sketch=1;curveFitting=1;jiggle=2;" parent="1" vertex="1">
                    <mxGeometry x="400" y="400" width="30" height="30" as="geometry"/>
                </mxCell>
                <mxCell id="28" value="ADD" style="rounded=0;whiteSpace=wrap;html=1;sketch=1;curveFitting=1;jiggle=2;" parent="1" vertex="1">
                    <mxGeometry x="400" y="440" width="30" height="30" as="geometry"/>
                </mxCell>
                <mxCell id="29" value="ADD" style="rounded=0;whiteSpace=wrap;html=1;sketch=1;curveFitting=1;jiggle=2;" parent="1" vertex="1">
                    <mxGeometry x="400" y="480" width="30" height="30" as="geometry"/>
                </mxCell>
                <mxCell id="99" value="" style="rounded=0;whiteSpace=wrap;html=1;sketch=1;hachureGap=4;jiggle=2;curveFitting=1;fontFamily=Architects Daughter;fontSource=https%3A%2F%2Ffonts.googleapis.com%2Fcss%3Ffamily%3DArchitects%2BDaughter;fontSize=20;" vertex="1" parent="1">
                    <mxGeometry x="100" y="140" width="360" height="480" as="geometry"/>
                </mxCell>
                <mxCell id="100" value="" style="rounded=0;whiteSpace=wrap;html=1;sketch=1;hachureGap=4;jiggle=2;curveFitting=1;fontFamily=Architects Daughter;fontSource=https%3A%2F%2Ffonts.googleapis.com%2Fcss%3Ffamily%3DArchitects%2BDaughter;fontSize=20;" vertex="1" parent="1">
                    <mxGeometry x="480" y="140" width="260" height="320" as="geometry"/>
                </mxCell>
                <mxCell id="36" value="Untitled Layer" parent="0"/>
                <mxCell id="39" value="Navigation Bar" style="rounded=0;whiteSpace=wrap;html=1;sketch=1;curveFitting=1;jiggle=2;strokeColor=#0000CC;fillColor=#00CCCC;" parent="36" vertex="1">
                    <mxGeometry x="90" y="50" width="660" height="70" as="geometry"/>
                </mxCell>
                <mxCell id="40" value="&lt;span dir=&quot;ltr&quot; class=&quot;ui-provider a b c d e f g h i j k l m n o p q r s t u v w x y z ab ac ae af ag ah ai aj ak&quot;&gt;Available&amp;nbsp;&lt;/span&gt;Students List" style="rounded=0;whiteSpace=wrap;html=1;sketch=1;curveFitting=1;jiggle=2;" parent="36" vertex="1">
                    <mxGeometry x="110" y="170" width="330" height="360" as="geometry"/>
                </mxCell>
                <mxCell id="41" value="Already Selected List" style="rounded=0;whiteSpace=wrap;html=1;sketch=1;curveFitting=1;jiggle=2;" parent="36" vertex="1">
                    <mxGeometry x="490" y="170" width="220" height="170" as="geometry"/>
                </mxCell>
                <mxCell id="42" value="Currently Selected List" style="rounded=0;whiteSpace=wrap;html=1;sketch=1;curveFitting=1;jiggle=2;" parent="36" vertex="1">
                    <mxGeometry x="490" y="360" width="220" height="60" as="geometry"/>
                </mxCell>
                <mxCell id="47" value="Footer" style="rounded=0;whiteSpace=wrap;html=1;sketch=1;curveFitting=1;jiggle=2;shadow=1;strokeColor=#0000CC;fillColor=#00FFFF;" parent="36" vertex="1">
                    <mxGeometry x="90" y="660" width="660" height="60" as="geometry"/>
                </mxCell>
                <mxCell id="48" value="" style="rounded=0;whiteSpace=wrap;html=1;sketch=1;curveFitting=1;jiggle=2;" parent="36" vertex="1">
                    <mxGeometry x="120" y="180" width="270" height="30" as="geometry"/>
                </mxCell>
                <mxCell id="49" value="" style="rounded=0;whiteSpace=wrap;html=1;sketch=1;curveFitting=1;jiggle=2;" parent="36" vertex="1">
                    <mxGeometry x="120" y="360" width="270" height="30" as="geometry"/>
                </mxCell>
                <mxCell id="50" value="" style="rounded=0;whiteSpace=wrap;html=1;sketch=1;curveFitting=1;jiggle=2;" parent="36" vertex="1">
                    <mxGeometry x="120" y="220" width="270" height="30" as="geometry"/>
                </mxCell>
                <mxCell id="51" value="" style="rounded=0;whiteSpace=wrap;html=1;sketch=1;curveFitting=1;jiggle=2;" parent="36" vertex="1">
                    <mxGeometry x="120" y="260" width="270" height="30" as="geometry"/>
                </mxCell>
                <mxCell id="52" value="" style="rounded=0;whiteSpace=wrap;html=1;sketch=1;curveFitting=1;jiggle=2;" parent="36" vertex="1">
                    <mxGeometry x="120" y="300" width="270" height="30" as="geometry"/>
                </mxCell>
                <mxCell id="53" value="" style="rounded=0;whiteSpace=wrap;html=1;sketch=1;curveFitting=1;jiggle=2;" parent="36" vertex="1">
                    <mxGeometry x="120" y="480" width="270" height="30" as="geometry"/>
                </mxCell>
                <mxCell id="54" value="" style="rounded=0;whiteSpace=wrap;html=1;sketch=1;curveFitting=1;jiggle=2;" parent="36" vertex="1">
                    <mxGeometry x="120" y="440" width="270" height="30" as="geometry"/>
                </mxCell>
                <mxCell id="55" value="" style="rounded=0;whiteSpace=wrap;html=1;sketch=1;curveFitting=1;jiggle=2;" parent="36" vertex="1">
                    <mxGeometry x="120" y="400" width="270" height="30" as="geometry"/>
                </mxCell>
                <mxCell id="56" value="ADD" style="rounded=0;whiteSpace=wrap;html=1;sketch=1;curveFitting=1;jiggle=2;" parent="36" vertex="1">
                    <mxGeometry x="400" y="180" width="30" height="30" as="geometry"/>
                </mxCell>
                <mxCell id="57" value="ADD" style="rounded=0;whiteSpace=wrap;html=1;sketch=1;curveFitting=1;jiggle=2;" parent="36" vertex="1">
                    <mxGeometry x="400" y="220" width="30" height="30" as="geometry"/>
                </mxCell>
                <mxCell id="58" value="ADD" style="rounded=0;whiteSpace=wrap;html=1;sketch=1;curveFitting=1;jiggle=2;" parent="36" vertex="1">
                    <mxGeometry x="400" y="260" width="30" height="30" as="geometry"/>
                </mxCell>
                <mxCell id="59" value="ADD" style="rounded=0;whiteSpace=wrap;html=1;sketch=1;curveFitting=1;jiggle=2;" parent="36" vertex="1">
                    <mxGeometry x="400" y="300" width="30" height="30" as="geometry"/>
                </mxCell>
                <mxCell id="60" value="ADD" style="rounded=0;whiteSpace=wrap;html=1;sketch=1;curveFitting=1;jiggle=2;" parent="36" vertex="1">
                    <mxGeometry x="400" y="360" width="30" height="30" as="geometry"/>
                </mxCell>
                <mxCell id="61" value="ADD" style="rounded=0;whiteSpace=wrap;html=1;sketch=1;curveFitting=1;jiggle=2;" parent="36" vertex="1">
                    <mxGeometry x="400" y="400" width="30" height="30" as="geometry"/>
                </mxCell>
                <mxCell id="62" value="ADD" style="rounded=0;whiteSpace=wrap;html=1;sketch=1;curveFitting=1;jiggle=2;" parent="36" vertex="1">
                    <mxGeometry x="400" y="440" width="30" height="30" as="geometry"/>
                </mxCell>
                <mxCell id="63" value="ADD" style="rounded=0;whiteSpace=wrap;html=1;sketch=1;curveFitting=1;jiggle=2;" parent="36" vertex="1">
                    <mxGeometry x="400" y="480" width="30" height="30" as="geometry"/>
                </mxCell>
                <mxCell id="67" value="Untitled Layer" parent="0"/>
                <mxCell id="70" value="Navigation Bar" style="rounded=0;whiteSpace=wrap;html=1;sketch=1;curveFitting=1;jiggle=2;strokeColor=#0000CC;fillColor=#00CCCC;" parent="67" vertex="1">
                    <mxGeometry x="90" y="50" width="660" height="70" as="geometry"/>
                </mxCell>
                <mxCell id="71" value="&lt;span dir=&quot;ltr&quot; class=&quot;ui-provider a b c d e f g h i j k l m n o p q r s t u v w x y z ab ac ae af ag ah ai aj ak&quot;&gt;Available&amp;nbsp;&lt;/span&gt;Students List" style="rounded=0;whiteSpace=wrap;html=1;sketch=1;curveFitting=1;jiggle=2;" parent="67" vertex="1">
                    <mxGeometry x="110" y="170" width="340" height="360" as="geometry"/>
                </mxCell>
                <mxCell id="72" value="Already Selected List" style="rounded=0;whiteSpace=wrap;html=1;sketch=1;curveFitting=1;jiggle=2;" parent="67" vertex="1">
                    <mxGeometry x="490" y="170" width="220" height="170" as="geometry"/>
                </mxCell>
                <mxCell id="73" value="Currently Selected List" style="rounded=0;whiteSpace=wrap;html=1;sketch=1;curveFitting=1;jiggle=2;" parent="67" vertex="1">
                    <mxGeometry x="490" y="360" width="220" height="60" as="geometry"/>
                </mxCell>
                <mxCell id="74" value="Pick Random Student" style="rounded=0;whiteSpace=wrap;html=1;sketch=1;curveFitting=1;jiggle=2;" parent="67" vertex="1">
                    <mxGeometry x="330" y="540" width="120" height="30" as="geometry"/>
                </mxCell>
                <mxCell id="76" value="Reset&amp;nbsp;" style="rounded=0;whiteSpace=wrap;html=1;sketch=1;curveFitting=1;jiggle=2;" parent="67" vertex="1">
                    <mxGeometry x="110" y="540" width="70" height="30" as="geometry"/>
                </mxCell>
                <mxCell id="78" value="Footer" style="rounded=0;whiteSpace=wrap;html=1;sketch=1;curveFitting=1;jiggle=2;shadow=1;strokeColor=#0000CC;fillColor=#00FFFF;" parent="67" vertex="1">
                    <mxGeometry x="90" y="660" width="660" height="60" as="geometry"/>
                </mxCell>
                <mxCell id="79" value="" style="rounded=0;whiteSpace=wrap;html=1;sketch=1;curveFitting=1;jiggle=2;" parent="67" vertex="1">
                    <mxGeometry x="120" y="180" width="310" height="30" as="geometry"/>
                </mxCell>
                <mxCell id="80" value="Student Name: bla bla bla&amp;nbsp; &amp;nbsp; Email: bla bla@example.com" style="rounded=0;whiteSpace=wrap;html=1;sketch=1;curveFitting=1;jiggle=2;" parent="67" vertex="1">
                    <mxGeometry x="120" y="360" width="310" height="30" as="geometry"/>
                </mxCell>
                <mxCell id="81" value="" style="rounded=0;whiteSpace=wrap;html=1;sketch=1;curveFitting=1;jiggle=2;" parent="67" vertex="1">
                    <mxGeometry x="120" y="220" width="310" height="30" as="geometry"/>
                </mxCell>
                <mxCell id="82" value="" style="rounded=0;whiteSpace=wrap;html=1;sketch=1;curveFitting=1;jiggle=2;" parent="67" vertex="1">
                    <mxGeometry x="120" y="260" width="310" height="30" as="geometry"/>
                </mxCell>
                <mxCell id="83" value="" style="rounded=0;whiteSpace=wrap;html=1;sketch=1;curveFitting=1;jiggle=2;" parent="67" vertex="1">
                    <mxGeometry x="120" y="300" width="310" height="30" as="geometry"/>
                </mxCell>
                <mxCell id="84" value="" style="rounded=0;whiteSpace=wrap;html=1;sketch=1;curveFitting=1;jiggle=2;" parent="67" vertex="1">
                    <mxGeometry x="120" y="480" width="310" height="30" as="geometry"/>
                </mxCell>
                <mxCell id="85" value="" style="rounded=0;whiteSpace=wrap;html=1;sketch=1;curveFitting=1;jiggle=2;" parent="67" vertex="1">
                    <mxGeometry x="120" y="440" width="310" height="30" as="geometry"/>
                </mxCell>
                <mxCell id="86" value="" style="rounded=0;whiteSpace=wrap;html=1;sketch=1;curveFitting=1;jiggle=2;" parent="67" vertex="1">
                    <mxGeometry x="120" y="400" width="310" height="30" as="geometry"/>
                </mxCell>
                <mxCell id="98" value="Pick Selected Student&amp;nbsp;" style="rounded=0;whiteSpace=wrap;html=1;sketch=1;curveFitting=1;jiggle=2;" parent="67" vertex="1">
                    <mxGeometry x="190" y="540" width="130" height="30" as="geometry"/>
                </mxCell>
            </root>
        </mxGraphModel>
    </diagram>
</mxfile>